<svg width="64" height="57" viewBox="0 0 64 57" fill="none" xmlns="http://www.w3.org/2000/svg">
<path d="M29.3 53.1135C27.9 51.6135 24.5 48.7135 21.7 46.6135C13.4 40.4135 12.3 39.5135 8.9 36.5135C2.6 30.7135 0 25.1135 0 17.4135C0 13.6135 0.3 12.2135 1.3 10.0135C3.1 6.21348 5.8 3.51348 9.2 1.81348C11.6 0.61348 12.8 0.11348 16.8 0.0134802C21 0.0134802 21.9 0.51348 24.4 1.81348C27.4 3.41348 30.5 6.91348 31.2 9.41348L31.6 10.9135L32.6 8.81348C38.1 -3.08652 55.8 -2.88652 61.9 9.11348C63.8 12.9135 64.1 21.1135 62.3 25.7135C60 31.7135 55.8 36.3135 46 43.3135C39.6 47.9135 32.3 54.8135 31.8 55.8135C31.3 56.9135 31.9 55.9135 29.3 53.1135Z" fill="#FF0000"/>
</svg>
