<svg width="26" height="26" viewBox="0 0 26 26" fill="none" xmlns="http://www.w3.org/2000/svg">
<g clip-path="url(#clip0)">
<path d="M13 11.9573C14.4969 12.4135 15.6687 13.5865 16.124 15.0833C16.5823 13.5865 17.7542 12.4146 19.25 11.9583C17.7542 11.501 16.5823 10.3302 16.124 8.83333C15.6687 10.3292 14.4969 11.501 13 11.9573ZM21.3344 11.9583C22.3323 12.2635 23.1125 13.0437 23.4177 14.0427C23.7208 13.0437 24.5031 12.2625 25.5 11.9583C24.5031 11.6542 23.7219 10.8729 23.4167 9.875C23.1115 10.8729 22.3312 11.6542 21.3344 11.9583ZM20.2927 2.58333C19.8375 4.08021 18.6646 5.25208 17.1698 5.70937C18.6677 6.16771 19.8375 7.33854 20.2958 8.83646C20.751 7.33854 21.924 6.16667 23.4167 5.70937C21.924 5.25417 20.751 4.08021 20.2927 2.58333ZM13 25.5C6.10729 25.5 0.5 19.8927 0.5 13C0.5 6.10729 6.10729 0.5 13 0.5C14.9729 0.5 16.7812 1.01771 18.5938 1.72812C15.5229 2.25312 8.83333 5.13021 8.83333 13C8.83333 20.7646 14.9969 23.6333 18.5938 24.2719C17.0312 25.1531 14.9729 25.5 13 25.5Z" fill="#B2BECD"/>
</g>
<defs>
<clipPath id="clip0">
<rect width="25" height="25" fill="white" transform="translate(0.5 0.5)"/>
</clipPath>
</defs>
</svg>
