<svg width="25" height="25" viewBox="0 0 25 25" fill="none" xmlns="http://www.w3.org/2000/svg">
<g clip-path="url(#clip0)">
<path d="M23.7715 20.6973L18.7599 15.6857C19.7316 14.1552 20.2935 12.3407 20.2935 10.3983C20.2935 4.94062 15.8539 0.5 10.3962 0.5C4.93861 0.5 0.5 4.94062 0.5 10.3983C0.5 15.8559 4.93861 20.2965 10.3973 20.2965C12.244 20.2965 13.9739 19.788 15.4541 18.9039L20.51 23.9598C22.6689 26.1157 25.9314 22.8562 23.7715 20.6973ZM3.56816 10.3983C3.56816 6.6333 6.63229 3.56917 10.3973 3.56917C14.1622 3.56917 17.2264 6.63229 17.2264 10.3983C17.2264 14.1642 14.1622 17.2274 10.3973 17.2274C6.63229 17.2274 3.56816 14.1632 3.56816 10.3983ZM5.59212 8.62201C7.58989 3.99108 14.3163 4.52778 15.583 9.37621C13.0314 6.38156 8.54146 6.05934 5.59212 8.62201Z" fill="#B2BECD"/>
</g>
<defs>
<clipPath id="clip0">
<path d="M0.5 10.5C0.5 4.97715 4.97715 0.5 10.5 0.5H24.6667V24.6667H10.5C4.97715 24.6667 0.5 20.1895 0.5 14.6667V10.5Z" fill="white"/>
</clipPath>
</defs>
</svg>
