<svg width="25" height="25" viewBox="0 0 25 25" fill="none" xmlns="http://www.w3.org/2000/svg">
<path d="M23.0635 22.9657C24.131 21.8982 24.1254 20.1657 23.0511 19.1051L16.3385 12.4781L22.9752 5.7751C24.0288 4.71093 24.0246 2.9954 22.9656 1.93648V1.93648C21.8982 0.869008 20.1657 0.874563 19.1051 1.94886L12.475 8.66458L5.72953 2.00597C4.67224 0.96229 2.97074 0.967804 1.92023 2.01831V2.01831C0.861239 3.0773 0.865441 4.79556 1.9296 5.84936L8.66771 12.5219L2.00598 19.2705C0.962296 20.3278 0.967805 22.0293 2.01831 23.0798V23.0798C3.0773 24.1388 4.79556 24.1346 5.84935 23.0704L12.5187 16.3354L19.2249 22.9752C20.2891 24.0288 22.0046 24.0246 23.0635 22.9657V22.9657Z" fill="#F8F8F8"/>
</svg>
